<svg width="92" height="73" viewBox="0 0 92 73" fill="none" xmlns="http://www.w3.org/2000/svg">
<path d="M45.1087 34.4326C47.0925 34.4326 48.1275 32.9926 48.6737 31.8805C48.53 31.7236 47.955 31.2816 47.61 30.9395C47.265 31.5525 46.4312 32.465 45.6119 32.465C44.1456 32.465 43.3981 30.3691 45.1519 28.6725C45.08 28.6439 44.5338 28.4158 44.0019 29.0146C44.0019 28.5869 44.1456 28.2875 44.3037 28.0736C43.8006 28.259 42.895 28.8721 42.665 29.2C42.6937 28.373 42.895 28.1307 42.7512 27.9168L42.7225 27.8883C42.7225 27.8883 41.5006 28.6867 41.3856 29.9842C41.3856 29.9842 41.5438 29.7561 41.6875 29.7133C41.7738 29.6705 41.8744 29.7133 41.7738 29.9842C41.745 30.0697 40.94 32.2227 42.5069 33.6912C42.4206 33.4631 42.2337 32.6076 42.8519 33.4203C42.8088 33.4346 43.6856 34.4326 45.1087 34.4326ZM52.6413 31.4242C52.6413 30.8539 51.9369 30.7969 51.8363 30.7826C52.1237 31.3387 51.9656 31.852 51.865 32.0658C52.2244 32.0088 52.6413 31.8377 52.6413 31.4242ZM54.1219 32.1656C54.1219 31.2531 53.2306 30.5402 52.1812 30.64C53.3312 30.8254 52.9862 32.6076 51.4625 32.2654C51.9944 31.8947 51.9225 30.8539 51.2756 30.4832C51.4769 31.082 50.8444 31.6523 50.2119 31.1391C49.8669 30.8682 49.0619 30.198 48.6881 29.9129C48.3431 29.6135 47.8975 29.7703 47.7394 29.6563C47.5525 29.4994 47.6675 29.1145 47.4231 28.9434C47.1931 28.8293 46.9919 28.9006 46.7331 28.8008C46.5031 28.7152 46.345 28.5299 46.3594 28.3018C46 28.9291 46.8481 29.2 47.0062 29.5137C47.15 29.7846 46.8913 30.198 47.5812 30.7256C49.7087 32.3795 48.8894 31.8662 49.0762 33.3063C49.1625 33.9193 49.68 34.2615 49.9962 34.3613C49.6944 34.0904 49.5794 33.4488 49.9962 33.0354C49.9962 35.0172 52.7562 34.9316 53.3169 33.9479C52.9719 34.1047 52.3106 33.9193 52.0231 33.677C53.13 33.8195 54.0644 33.0924 54.1219 32.1656ZM48.4581 29.5422C48.7456 29.6562 48.6881 29.642 49.3781 30.1838C50.8444 26.6906 52.4975 27.9453 52.5406 27.9738C52.8569 27.7029 53.9494 27.432 54.5244 27.5889C54.1794 27.2039 53.4463 26.7049 52.6125 26.7049C51.9369 26.7049 51.5487 27.0186 51.4625 26.8902C51.3475 26.6906 51.9225 26.4055 51.9225 26.4055C51.1463 26.434 50.5425 27.3607 50.3125 27.2467C50.1544 27.1754 50.5137 26.7191 50.5137 26.7191C49.7806 27.1326 49.1769 28.0166 49.0475 28.5727C49.7088 27.7457 51.0312 27.1754 51.8794 27.2895C50.37 27.3607 49.0763 28.6725 48.4581 29.5422ZM83.3175 36.942C80.3419 36.942 77.5675 37.1273 76.0869 37.2414L77.1506 38.4105V49.4176L76.0869 50.5867C77.5819 50.7008 80.5288 50.8861 83.5044 50.8861C89.5563 50.8861 92 47.9348 92 43.9141C92 39.7365 88.665 36.942 83.3175 36.942ZM81.1469 47.7209V40.1215C85.4737 39.651 87.8744 40.6633 87.8744 43.8713C87.8744 47.5213 84.7981 48.1772 81.1469 47.7209ZM43.355 25.8066C43.2113 25.3219 43.3263 24.8229 43.5131 24.4664C43.6569 24.8941 43.8869 25.3789 44.5913 25.7496C44.5194 25.4074 44.5625 24.9512 44.6631 24.609C44.4619 23.8391 44.965 23.1975 45.5831 23.1975C46.575 23.1975 46.805 24.4522 46.2587 25.2506C46.5606 25.7068 47.0494 26.049 47.3656 26.3627C47.8256 25.8352 48.1562 25.0082 48.1562 24.3951C48.1562 23.226 47.3656 22.1281 45.7556 22.0426C42.8806 21.9143 42.8519 24.4094 42.8806 24.7373C42.9525 25.4787 43.3694 25.8494 43.355 25.8066ZM43.2975 26.6621C43.2256 26.9188 42.2912 27.1896 41.8312 27.6459C42.5212 27.5033 42.8375 27.6174 42.9525 27.9025C43.0244 28.1021 42.9237 28.3873 42.8806 28.701C43.1106 28.4443 43.8869 27.9168 44.4619 27.817C44.3181 27.7742 43.9731 27.7029 43.8438 27.7029C44.2606 27.2182 45.1806 27.0613 45.6837 27.1754C45.3675 27.1469 44.7206 27.3322 44.4619 27.5461C44.6919 27.5889 44.8931 27.6316 45.08 27.7029C44.7781 27.817 44.39 28.1877 44.2462 28.5727C45.2525 27.8598 46.1294 29.3141 45.2525 29.7418C45.3675 29.7703 45.6406 29.7418 45.7556 29.6705C45.7125 29.8273 45.4825 30.0982 45.3244 30.1553C45.7412 30.1553 46.3306 29.8844 46.5031 29.4994C46.5031 29.4994 46.2444 29.585 46.1294 29.4709C46.0144 29.3568 46.1725 28.8578 46.1725 28.8578C45.8419 29.2713 45.6837 28.6725 45.9856 28.259C45.8419 28.2162 45.4825 28.1734 45.3244 28.1877C45.7844 28.0309 46.8194 27.9311 46.9344 28.1449C47.0206 28.3018 46.7906 28.6297 46.7906 28.6297C47.3656 28.5584 47.9837 28.7865 47.7537 29.3568C48.1706 29.1572 48.5444 28.5156 48.4437 27.874C48.4006 28.0166 48.2137 28.2162 48.0269 28.259C48.0556 28.0594 47.8831 27.9453 47.7537 27.8883C47.9981 26.5195 45.655 25.8637 45.7269 24.4807C45.5831 24.666 45.4681 25.1936 45.6119 25.493C46 25.9492 46.8625 26.4482 47.0637 27.2324C46.69 26.3199 44.8931 25.607 44.965 24.3523C44.735 24.5805 44.5913 25.4645 44.7781 25.9207C45.1231 26.1203 45.425 26.4625 45.4681 26.7904C45.1519 26.0633 43.8294 25.9207 43.47 25.051C43.3837 25.3646 43.4269 25.7639 43.6137 26.0062C43.6137 26.0062 43.2975 25.8922 42.6075 25.9207C42.8519 26.0063 43.3406 26.4197 43.2975 26.6621ZM47.0206 27.7172C46.6325 27.7172 46.5175 27.4178 46.4169 27.1041C46.8913 27.2895 47.0206 27.7172 47.0206 27.7172ZM52.6125 28.2447L52.4688 28.1592C52.3106 28.0166 52.0519 27.9596 51.7931 27.9596C51.3762 27.9596 50.9594 28.1449 50.715 28.4443C50.6 28.5584 50.5137 28.701 50.4131 28.815V31.0535C50.9162 31.4242 51.4338 30.64 50.8444 30.027C51.06 30.0697 51.5056 30.4119 51.5775 30.4832C51.5775 30.4832 51.9512 30.4119 52.2962 30.4119C52.5981 30.4119 52.8569 30.4547 53.1012 30.5687V27.9453C52.9431 28.0166 52.785 28.0879 52.7131 28.1449L52.6125 28.2447ZM11.4856 43.6146C13.9581 42.9588 13.8144 41.0482 13.8144 40.7773C13.8144 37.8402 10.35 37.2129 8.49562 37.2129H0.43125L1.62437 38.4391V42.6451H0L1.63875 44.7268V49.332L0.43125 50.5582C9.30062 50.5582 11.04 50.7721 12.8512 49.717C13.8144 49.1467 14.2744 48.3197 14.2744 47.2076C14.2744 46.4805 14.6481 44.5271 11.4856 43.6146ZM5.54875 39.6938C8.42375 39.6938 9.80375 39.5797 9.80375 40.9912V41.4189C9.80375 43.1441 7.0725 42.6736 5.54875 42.6736V39.6938ZM5.54875 48.1344V44.9121C7.3025 44.9121 10.2494 44.5842 10.2494 46.1668V46.8084H10.2781C10.2781 48.4053 8.48125 48.1344 5.54875 48.1344ZM20.0963 45.3826L23.4169 45.4111V45.3826L25.4438 42.36H20.0963V40.2355H27.6287L25.6019 37.2414V37.2129L15.0362 37.2414L16.1 38.4105V49.4033L15.0362 50.5725H26.7087L28.7356 47.5498L20.0963 47.5783V45.3826ZM50.9594 36.8137C40.3363 36.8137 39.8188 50.9717 50.9163 50.9717C62.1144 50.9717 61.5681 36.8137 50.9594 36.8137ZM50.9163 47.8635C45.54 47.8635 45.6119 39.9789 50.945 39.9789C56.235 39.9932 56.5225 47.8635 50.9163 47.8635ZM37.7919 46.6801L44.1312 37.2414H38.1369L39.0137 38.268L36.0669 43.5719H36.0238L33.005 38.268L33.925 37.2414H27.4706L33.81 46.623L33.8387 49.3891L32.7319 50.5582H38.8556L37.8206 49.3891L37.7919 46.6801ZM33.7094 25.108C33.9394 25.2934 34.1262 25.4502 34.1262 26.049V31.5811C34.1262 32.1799 34.0112 32.3367 33.7381 32.4936C33.7238 32.5078 32.66 33.1352 32.6025 33.1494H37.6481C39.0856 33.1494 40.1494 32.9355 41.3856 31.9232C41.2994 31.2104 41.4144 30.5687 41.5006 30.2123C41.5006 30.1838 41.2419 30.4119 41.1125 30.7113C41.1125 29.8986 41.3425 28.5156 42.4925 27.7885C42.4781 27.7885 41.9606 27.6744 41.1987 27.9453C41.4862 27.5033 42.6362 26.8189 42.6937 26.8189C41.515 23.1119 37.2312 23.5539 38.065 23.5539C33.6231 23.5539 33.3787 23.5967 32.3294 22.9836C32.3437 23.0977 32.4012 24.1527 33.7094 25.108ZM36.8 25.8922C37.4613 25.8922 40.1206 25.4217 40.1206 28.3588C40.1206 31.3102 37.4756 30.8254 36.8 30.8254V25.8922ZM69.7044 37.2414L70.7106 38.4248V44.4844H70.6675C69.8912 42.4312 64.5869 38.5674 64.17 37.2271H59.6275L60.6912 38.4391V49.4033L59.6562 50.5867H65.2625L64.1988 49.4176V42.6594H64.2419C64.7738 44.1707 70.6387 48.776 71.2137 50.5867H74.2756V38.4391L75.3394 37.2557L69.7044 37.2414ZM54.3662 23.5397C49.7375 23.5397 49.6512 23.5682 48.6306 22.9693C48.645 23.0691 48.7025 24.1527 50.0106 25.0938C50.4562 25.3789 50.4275 25.7068 50.4275 26.4482C50.6862 26.2914 50.9738 26.1346 51.3044 26.0205C51.1462 26.1773 50.9162 26.4055 50.8012 26.6621C50.945 26.5053 51.8794 25.935 52.9 26.1631C52.67 26.2059 52.325 26.3199 52.0231 26.5766C52.0375 26.5766 52.325 26.4197 53.1012 26.5338V25.9207C53.7769 25.9207 56.4219 25.4359 56.4219 28.3873C56.4219 31.3102 53.7625 30.8539 53.59 30.8539C54.4094 31.4812 54.4238 32.5648 53.9062 33.1779H53.9494C58.7506 33.1779 59.225 29.2855 59.225 28.3303C59.225 27.7885 59.0669 23.7678 54.3662 23.5397Z" fill="#F9004D"/>
</svg>
